<?xml version="1.0" encoding="utf-8"?>
<!-- Generator: Adobe Illustrator 22.0.1, SVG Export Plug-In . SVG Version: 6.00 Build 0)  -->
<svg version="1.1" id="Livello_1" xmlns="http://www.w3.org/2000/svg" xmlns:xlink="http://www.w3.org/1999/xlink" x="0px" y="0px"
	 viewBox="0 0 200 200" style="enable-background:new 0 0 200 200;" xml:space="preserve">
<style type="text/css">
	.st0{clip-path:url(#SVGID_2_);fill:url(#SVGID_3_);}
	.st1{clip-path:url(#SVGID_5_);fill:url(#SVGID_6_);}
	.st2{clip-path:url(#SVGID_8_);fill:#99FFC2;}
</style>
<g>
	<defs>
		<polygon id="SVGID_1_" points="115.8,60.3 115.8,107 125.1,90.9 125.1,60.3 		"/>
	</defs>
	<clipPath id="SVGID_2_">
		<use xlink:href="#SVGID_1_"  style="overflow:visible;"/>
	</clipPath>
	
		<linearGradient id="SVGID_3_" gradientUnits="userSpaceOnUse" x1="0" y1="199.9926" x2="1" y2="199.9926" gradientTransform="matrix(244.5591 -117.6178 -117.6178 -244.5591 23557.2383 49034.9258)">
		<stop  offset="0" style="stop-color:#FF8859"/>
		<stop  offset="1" style="stop-color:#5F0B95"/>
	</linearGradient>
	<polygon class="st0" points="97.6,69.1 123.4,56.6 143.3,98.2 117.5,110.6 	"/>
</g>
<g>
	<defs>
		<polygon id="SVGID_4_" points="102.7,60.3 102.7,111.1 85.4,60.3 74.9,60.3 74.9,90.9 83.5,105.7 83.5,78.5 99.3,125 105.3,125 
			111.3,114.7 111.3,60.3 		"/>
	</defs>
	<clipPath id="SVGID_5_">
		<use xlink:href="#SVGID_4_"  style="overflow:visible;"/>
	</clipPath>
	
		<linearGradient id="SVGID_6_" gradientUnits="userSpaceOnUse" x1="0" y1="199.9952" x2="1" y2="199.9952" gradientTransform="matrix(244.5591 -117.6178 -117.6178 -244.5591 23555.9277 49032.2031)">
		<stop  offset="0" style="stop-color:#FF8859"/>
		<stop  offset="1" style="stop-color:#5F0B95"/>
	</linearGradient>
	<polygon class="st1" points="49.6,72.4 104.5,46.1 136.6,112.8 81.7,139.2 	"/>
</g>
<g>
	<defs>
		<rect id="SVGID_7_" width="200" height="200"/>
	</defs>
	<clipPath id="SVGID_8_">
		<use xlink:href="#SVGID_7_"  style="overflow:visible;"/>
	</clipPath>
	<path class="st2" d="M86,48.4c0-0.4-0.3-0.7-0.7-0.7H84v1.4h1.3C85.8,49.1,86,48.9,86,48.4"/>
	<polygon class="st2" points="79.4,48.2 79.3,47.7 79.2,48.2 78.5,50.4 80.2,50.4 	"/>
	<polygon class="st2" points="95.5,48.2 95.4,47.7 95.2,48.2 94.5,50.4 96.2,50.4 	"/>
	<path class="st2" d="M86.2,50.7c0-0.5-0.3-0.7-0.8-0.7H84v1.5h1.4C85.9,51.5,86.2,51.2,86.2,50.7"/>
	<path class="st2" d="M159.8,56.8l-2.7-4.7l-2.7-4.7c-1-1.8-2.9-2.8-4.9-2.8h-99c-2,0-3.9,1.1-4.9,2.8l-2.7,4.7l-2.7,4.7
		c-1,1.8-1,3.9,0,5.7l49.5,85.1c1,1.7,2.9,2.8,4.9,2.8h10.8c2,0,3.9-1.1,4.9-2.8l49.5-85.1C160.8,60.7,160.8,58.6,159.8,56.8
		 M125.2,46.9h4.4v0.9h-1.6v4.4h-1.2v-4.4h-1.6V46.9z M122.5,50.1l-0.7-0.1c-1.1-0.2-1.7-0.7-1.7-1.6c0-1,0.8-1.6,2.2-1.6
		c1.3,0,2,0.5,2.2,1.4l-1.1,0.1c-0.1-0.5-0.5-0.7-1.1-0.7c-0.7,0-1,0.2-1,0.6c0,0.4,0.2,0.5,0.8,0.7l0.7,0.1
		c1.3,0.3,1.8,0.7,1.8,1.6c0,1.1-0.9,1.8-2.3,1.8c-1.3,0-2.1-0.5-2.3-1.6l1.1-0.1c0.1,0.6,0.5,0.8,1.2,0.8c0.7,0,1.1-0.3,1.1-0.7
		C123.4,50.4,123.2,50.2,122.5,50.1 M115.1,46.9h3.9v0.9h-2.8v1.2h2.6V50h-2.6v1.3h2.8v1h-4V46.9z M110.5,46.9l1.2,3.9l0.1,0.5
		l0.1-0.5l1.1-3.9h1.2l-1.8,5.4h-1.4l-1.8-5.4H110.5z M103.4,46.9h1.6l2.3,4.4v-4.4h1.1v5.4h-1.6l-2.4-4.4v4.4h-1.1V46.9z
		 M100.9,46.9h1.1v5.4h-1.1V46.9z M94.6,46.9h1.5l1.9,5.4h-1.2l-0.3-1h-2.3l-0.3,1h-1.2L94.6,46.9z M88.5,46.9h1.2v4.4h2.5v1h-3.7
		V46.9z M82.9,46.9h2.6c1.2,0,1.7,0.5,1.7,1.4c0,0.5-0.3,1-0.8,1.1c0.7,0.2,1,0.7,1,1.3c0,0.5-0.2,0.8-0.5,1.1
		c-0.3,0.3-0.8,0.5-1.5,0.5h-2.5V46.9z M78.5,46.9h1.5l1.9,5.4h-1.2l-0.3-1h-2.3l-0.3,1h-1.2L78.5,46.9z M70.8,46.9h1.6l2.3,4.4
		v-4.4h1v5.4h-1.6l-2.4-4.4v4.4h-1.1V46.9z M151.5,56.7L151.5,56.7l-7.5,12.8l-42.8,73.7c0,0.1-0.1,0.1-0.1,0.1l0,0l0,0
		c-0.6,0.7-1.7,0.7-2.2,0l0,0l0,0c0-0.1-0.1-0.1-0.1-0.1l0-0.1L69.4,92.8L55.9,69.6l-7.5-12.8c-0.5-0.9,0.1-2.1,1.2-2.1h100.6
		C151.4,54.6,152,55.7,151.5,56.7C151.6,56.7,151.6,56.7,151.5,56.7"/>
</g>
</svg>
